<svg width="230" height="48" viewBox="0 0 230 48" fill="none" xmlns="http://www.w3.org/2000/svg">
<path fill-rule="evenodd" clip-rule="evenodd" d="M48 24C48 37.2548 37.2548 48 24 48C10.7452 48 0 37.2548 0 24C0 10.7452 10.7452 0 24 0C37.2548 0 48 10.7452 48 24ZM36 24C36 30.6274 30.6274 36 24 36C17.3726 36 12 30.6274 12 24C12 17.3726 17.3726 12 24 12C30.6274 12 36 17.3726 36 24ZM24 32C28.4183 32 32 28.4183 32 24C32 19.5817 28.4183 16 24 16C19.5817 16 16 19.5817 16 24C16 28.4183 19.5817 32 24 32Z" fill="white"/>
<path d="M57.728 36V33.728L69.472 16.768H58.512V12.864H76.128V15.04L64.224 32.048H76V36H57.728ZM84.0533 36.32C83.0079 36.32 82.0586 36.1227 81.2053 35.728C80.3626 35.3333 79.6959 34.7627 79.2053 34.016C78.7146 33.2587 78.4693 32.3413 78.4693 31.264C78.4693 29.4507 79.1466 28.0747 80.5013 27.136C81.8559 26.1867 83.9946 25.696 86.9173 25.664L88.9973 25.632V24.64C88.9973 23.8827 88.7733 23.3013 88.3253 22.896C87.8879 22.48 87.1999 22.2773 86.2613 22.288C85.5893 22.2987 84.9439 22.4587 84.3253 22.768C83.7173 23.0773 83.2959 23.616 83.0613 24.384H79.1733C79.2373 23.1893 79.5839 22.208 80.2133 21.44C80.8533 20.6613 81.7119 20.0853 82.7893 19.712C83.8666 19.328 85.0986 19.136 86.4853 19.136C88.1706 19.136 89.5253 19.3493 90.5493 19.776C91.5733 20.192 92.3146 20.7947 92.7733 21.584C93.2426 22.3627 93.4773 23.2907 93.4773 24.368V36H89.5733L89.1893 33.152C88.6239 34.3467 87.9146 35.1733 87.0613 35.632C86.2186 36.0907 85.2159 36.32 84.0533 36.32ZM85.6373 33.248C86.0533 33.248 86.4586 33.1733 86.8533 33.024C87.2586 32.864 87.6213 32.656 87.9413 32.4C88.2613 32.1333 88.5119 31.8347 88.6933 31.504C88.8853 31.1733 88.9866 30.832 88.9973 30.48V28.032L87.3173 28.064C86.5386 28.0747 85.8133 28.1707 85.1413 28.352C84.4693 28.5227 83.9253 28.8053 83.5093 29.2C83.1039 29.5947 82.9013 30.128 82.9013 30.8C82.9013 31.568 83.1626 32.1707 83.6853 32.608C84.2186 33.0347 84.8693 33.248 85.6373 33.248ZM96.6263 36V19.456H101.202V21.792C101.704 21.0667 102.376 20.4427 103.218 19.92C104.072 19.3973 105.144 19.136 106.434 19.136C107 19.136 107.576 19.2373 108.162 19.44C108.749 19.6427 109.298 19.9413 109.81 20.336C110.333 20.72 110.754 21.2053 111.074 21.792C111.608 21.0347 112.306 20.4053 113.17 19.904C114.045 19.392 115.016 19.136 116.082 19.136C116.701 19.136 117.325 19.2373 117.954 19.44C118.594 19.6427 119.181 19.9733 119.714 20.432C120.248 20.8907 120.674 21.504 120.994 22.272C121.325 23.0293 121.49 23.968 121.49 25.088V36H116.818V25.664C116.818 25.0027 116.685 24.4747 116.418 24.08C116.162 23.6747 115.832 23.3867 115.426 23.216C115.032 23.0347 114.61 22.944 114.162 22.944C113.746 22.944 113.325 23.0293 112.898 23.2C112.472 23.36 112.109 23.6213 111.81 23.984C111.512 24.3467 111.362 24.8213 111.362 25.408V36H106.706V25.248C106.706 24.7467 106.573 24.3253 106.306 23.984C106.04 23.6427 105.704 23.3867 105.298 23.216C104.904 23.0347 104.498 22.944 104.082 22.944C103.656 22.944 103.229 23.0347 102.802 23.216C102.376 23.3867 102.018 23.6587 101.73 24.032C101.442 24.3947 101.298 24.8533 101.298 25.408V36H96.6263ZM131.813 36V12.864H147.701L147.685 16.8H136.501V22.416H146.213V26.272H136.469V32.016L147.861 32.032V36H131.813ZM150.189 29.472V26.064H158.925V29.456L150.189 29.472ZM172.207 36.32C170.053 36.32 168.191 35.8187 166.623 34.816C165.055 33.8133 163.845 32.4053 162.991 30.592C162.149 28.7787 161.727 26.6613 161.727 24.24C161.727 21.808 162.149 19.7227 162.991 17.984C163.834 16.2347 165.039 14.8907 166.607 13.952C168.175 13.0133 170.042 12.544 172.207 12.544C173.946 12.544 175.493 12.896 176.847 13.6C178.213 14.2933 179.311 15.2427 180.143 16.448C180.986 17.6533 181.482 19.0133 181.631 20.528H176.735C176.586 19.728 176.314 19.0187 175.919 18.4C175.525 17.7707 175.007 17.28 174.367 16.928C173.727 16.5653 172.959 16.384 172.063 16.384C170.986 16.384 170.058 16.6453 169.279 17.168C168.501 17.6907 167.903 18.5333 167.487 19.696C167.071 20.8587 166.863 22.3947 166.863 24.304C166.863 27.184 167.322 29.2693 168.239 30.56C169.167 31.84 170.442 32.48 172.063 32.48C172.959 32.48 173.727 32.2773 174.367 31.872C175.007 31.456 175.525 30.912 175.919 30.24C176.314 29.5573 176.586 28.8107 176.735 28H181.631C181.493 29.0987 181.226 30.1493 180.831 31.152C180.437 32.144 179.877 33.0293 179.151 33.808C178.426 34.5867 177.493 35.2 176.351 35.648C175.21 36.096 173.829 36.32 172.207 36.32ZM191.798 36.32C190.177 36.32 188.764 35.9733 187.558 35.28C186.364 34.5867 185.436 33.6053 184.774 32.336C184.124 31.0667 183.798 29.5627 183.798 27.824C183.798 26.0853 184.124 24.5653 184.774 23.264C185.436 21.9627 186.364 20.9493 187.558 20.224C188.764 19.4987 190.182 19.136 191.814 19.136C193.446 19.136 194.86 19.4933 196.054 20.208C197.249 20.912 198.172 21.9147 198.822 23.216C199.473 24.5173 199.798 26.0533 199.798 27.824C199.798 29.488 199.478 30.96 198.838 32.24C198.209 33.5093 197.297 34.5067 196.102 35.232C194.918 35.9573 193.484 36.32 191.798 36.32ZM191.814 32.848C192.636 32.848 193.297 32.608 193.798 32.128C194.3 31.648 194.662 31.0187 194.886 30.24C195.11 29.4507 195.222 28.592 195.222 27.664C195.222 26.7893 195.121 25.9627 194.918 25.184C194.716 24.4053 194.364 23.776 193.862 23.296C193.361 22.816 192.678 22.576 191.814 22.576C190.993 22.576 190.326 22.8053 189.814 23.264C189.313 23.712 188.945 24.3253 188.71 25.104C188.476 25.872 188.358 26.7253 188.358 27.664C188.358 28.528 188.465 29.36 188.678 30.16C188.892 30.9493 189.249 31.5947 189.75 32.096C190.252 32.5973 190.94 32.848 191.814 32.848ZM202.349 36V19.456H206.925V21.792C207.426 21.0667 208.098 20.4427 208.941 19.92C209.794 19.3973 210.866 19.136 212.157 19.136C212.722 19.136 213.298 19.2373 213.885 19.44C214.471 19.6427 215.021 19.9413 215.533 20.336C216.055 20.72 216.477 21.2053 216.797 21.792C217.33 21.0347 218.029 20.4053 218.893 19.904C219.767 19.392 220.738 19.136 221.805 19.136C222.423 19.136 223.047 19.2373 223.677 19.44C224.317 19.6427 224.903 19.9733 225.437 20.432C225.97 20.8907 226.397 21.504 226.717 22.272C227.047 23.0293 227.213 23.968 227.213 25.088V36H222.541V25.664C222.541 25.0027 222.407 24.4747 222.141 24.08C221.885 23.6747 221.554 23.3867 221.149 23.216C220.754 23.0347 220.333 22.944 219.885 22.944C219.469 22.944 219.047 23.0293 218.621 23.2C218.194 23.36 217.831 23.6213 217.533 23.984C217.234 24.3467 217.085 24.8213 217.085 25.408V36H212.429V25.248C212.429 24.7467 212.295 24.3253 212.029 23.984C211.762 23.6427 211.426 23.3867 211.021 23.216C210.626 23.0347 210.221 22.944 209.805 22.944C209.378 22.944 208.951 23.0347 208.525 23.216C208.098 23.3867 207.741 23.6587 207.453 24.032C207.165 24.3947 207.021 24.8533 207.021 25.408V36H202.349Z" fill="white"/>
</svg>
