<svg width="224" height="48" viewBox="0 0 224 48" fill="none" xmlns="http://www.w3.org/2000/svg">
<path fill-rule="evenodd" clip-rule="evenodd" d="M48 24C48 37.2548 37.2548 48 24 48C10.7452 48 0 37.2548 0 24C0 10.7452 10.7452 0 24 0C37.2548 0 48 10.7452 48 24ZM36 24C36 30.6274 30.6274 36 24 36C17.3726 36 12 30.6274 12 24C12 17.3726 17.3726 12 24 12C30.6274 12 36 17.3726 36 24ZM24 32C28.4183 32 32 28.4183 32 24C32 19.5817 28.4183 16 24 16C19.5817 16 16 19.5817 16 24C16 28.4183 19.5817 32 24 32Z" fill="#FA8232"/>
<path d="M57.728 36V33.728L69.472 16.768H58.512V12.864H76.128V15.04L64.224 32.048H76V36H57.728ZM84.0533 36.32C83.0079 36.32 82.0586 36.1227 81.2053 35.728C80.3626 35.3333 79.6959 34.7627 79.2053 34.016C78.7146 33.2587 78.4693 32.3413 78.4693 31.264C78.4693 29.4507 79.1466 28.0747 80.5013 27.136C81.8559 26.1867 83.9946 25.696 86.9173 25.664L88.9973 25.632V24.64C88.9973 23.8827 88.7733 23.3013 88.3253 22.896C87.8879 22.48 87.1999 22.2773 86.2613 22.288C85.5893 22.2987 84.9439 22.4587 84.3253 22.768C83.7173 23.0773 83.2959 23.616 83.0613 24.384H79.1733C79.2373 23.1893 79.5839 22.208 80.2133 21.44C80.8533 20.6613 81.7119 20.0853 82.7893 19.712C83.8666 19.328 85.0986 19.136 86.4853 19.136C88.1706 19.136 89.5253 19.3493 90.5493 19.776C91.5733 20.192 92.3146 20.7947 92.7733 21.584C93.2426 22.3627 93.4773 23.2907 93.4773 24.368V36H89.5733L89.1893 33.152C88.6239 34.3467 87.9146 35.1733 87.0613 35.632C86.2186 36.0907 85.2159 36.32 84.0533 36.32ZM85.6373 33.248C86.0533 33.248 86.4586 33.1733 86.8533 33.024C87.2586 32.864 87.6213 32.656 87.9413 32.4C88.2613 32.1333 88.5119 31.8347 88.6933 31.504C88.8853 31.1733 88.9866 30.832 88.9973 30.48V28.032L87.3173 28.064C86.5386 28.0747 85.8133 28.1707 85.1413 28.352C84.4693 28.5227 83.9253 28.8053 83.5093 29.2C83.1039 29.5947 82.9013 30.128 82.9013 30.8C82.9013 31.568 83.1626 32.1707 83.6853 32.608C84.2186 33.0347 84.8693 33.248 85.6373 33.248ZM96.6263 36V19.456H101.202V21.792C101.704 21.0667 102.376 20.4427 103.218 19.92C104.072 19.3973 105.144 19.136 106.434 19.136C107 19.136 107.576 19.2373 108.162 19.44C108.749 19.6427 109.298 19.9413 109.81 20.336C110.333 20.72 110.754 21.2053 111.074 21.792C111.608 21.0347 112.306 20.4053 113.17 19.904C114.045 19.392 115.016 19.136 116.082 19.136C116.701 19.136 117.325 19.2373 117.954 19.44C118.594 19.6427 119.181 19.9733 119.714 20.432C120.248 20.8907 120.674 21.504 120.994 22.272C121.325 23.0293 121.49 23.968 121.49 25.088V36H116.818V25.664C116.818 25.0027 116.685 24.4747 116.418 24.08C116.162 23.6747 115.832 23.3867 115.426 23.216C115.032 23.0347 114.61 22.944 114.162 22.944C113.746 22.944 113.325 23.0293 112.898 23.2C112.472 23.36 112.109 23.6213 111.81 23.984C111.512 24.3467 111.362 24.8213 111.362 25.408V36H106.706V25.248C106.706 24.7467 106.573 24.3253 106.306 23.984C106.04 23.6427 105.704 23.3867 105.298 23.216C104.904 23.0347 104.498 22.944 104.082 22.944C103.656 22.944 103.229 23.0347 102.802 23.216C102.376 23.3867 102.018 23.6587 101.73 24.032C101.442 24.3947 101.298 24.8533 101.298 25.408V36H96.6263ZM131.813 36V12.864H147.701L147.685 16.8H136.501V22.416H146.213V26.272H136.469V32.016L147.861 32.032V36H131.813ZM150.189 29.472V26.064H158.925V29.456L150.189 29.472ZM169.829 36.32C168.293 36.32 166.922 35.9787 165.717 35.296C164.511 34.6133 163.562 33.6373 162.869 32.368C162.186 31.088 161.845 29.5627 161.845 27.792C161.845 26.0853 162.175 24.5813 162.837 23.28C163.498 21.9787 164.426 20.9653 165.621 20.24C166.826 19.504 168.229 19.136 169.829 19.136C171.215 19.136 172.41 19.4187 173.413 19.984C174.426 20.5493 175.221 21.312 175.797 22.272C176.383 23.232 176.719 24.304 176.805 25.488H172.917C172.842 25.0507 172.687 24.6187 172.453 24.192C172.218 23.7547 171.887 23.3973 171.461 23.12C171.034 22.832 170.501 22.688 169.861 22.688C168.773 22.688 167.887 23.1093 167.205 23.952C166.533 24.784 166.197 26.0533 166.197 27.76C166.197 29.3707 166.527 30.6507 167.189 31.6C167.85 32.5387 168.773 33.008 169.957 33.008C170.586 33.008 171.109 32.8533 171.525 32.544C171.951 32.2347 172.282 31.8667 172.517 31.44C172.751 31.0027 172.901 30.5973 172.965 30.224H176.757C176.682 31.3653 176.351 32.4 175.765 33.328C175.178 34.2453 174.378 34.976 173.365 35.52C172.362 36.0533 171.183 36.32 169.829 36.32ZM186.673 36.32C185.052 36.32 183.639 35.9733 182.433 35.28C181.239 34.5867 180.311 33.6053 179.649 32.336C178.999 31.0667 178.673 29.5627 178.673 27.824C178.673 26.0853 178.999 24.5653 179.649 23.264C180.311 21.9627 181.239 20.9493 182.433 20.224C183.639 19.4987 185.057 19.136 186.689 19.136C188.321 19.136 189.735 19.4933 190.929 20.208C192.124 20.912 193.047 21.9147 193.697 23.216C194.348 24.5173 194.673 26.0533 194.673 27.824C194.673 29.488 194.353 30.96 193.713 32.24C193.084 33.5093 192.172 34.5067 190.977 35.232C189.793 35.9573 188.359 36.32 186.673 36.32ZM186.689 32.848C187.511 32.848 188.172 32.608 188.673 32.128C189.175 31.648 189.537 31.0187 189.761 30.24C189.985 29.4507 190.097 28.592 190.097 27.664C190.097 26.7893 189.996 25.9627 189.793 25.184C189.591 24.4053 189.239 23.776 188.737 23.296C188.236 22.816 187.553 22.576 186.689 22.576C185.868 22.576 185.201 22.8053 184.689 23.264C184.188 23.712 183.82 24.3253 183.585 25.104C183.351 25.872 183.233 26.7253 183.233 27.664C183.233 28.528 183.34 29.36 183.553 30.16C183.767 30.9493 184.124 31.5947 184.625 32.096C185.127 32.5973 185.815 32.848 186.689 32.848ZM197.224 36V19.456H201.8V21.792C202.301 21.0667 202.973 20.4427 203.816 19.92C204.669 19.3973 205.741 19.136 207.032 19.136C207.597 19.136 208.173 19.2373 208.76 19.44C209.346 19.6427 209.896 19.9413 210.408 20.336C210.93 20.72 211.352 21.2053 211.672 21.792C212.205 21.0347 212.904 20.4053 213.768 19.904C214.642 19.392 215.613 19.136 216.68 19.136C217.298 19.136 217.922 19.2373 218.552 19.44C219.192 19.6427 219.778 19.9733 220.312 20.432C220.845 20.8907 221.272 21.504 221.592 22.272C221.922 23.0293 222.088 23.968 222.088 25.088V36H217.416V25.664C217.416 25.0027 217.282 24.4747 217.016 24.08C216.76 23.6747 216.429 23.3867 216.024 23.216C215.629 23.0347 215.208 22.944 214.76 22.944C214.344 22.944 213.922 23.0293 213.496 23.2C213.069 23.36 212.706 23.6213 212.408 23.984C212.109 24.3467 211.96 24.8213 211.96 25.408V36H207.304V25.248C207.304 24.7467 207.17 24.3253 206.904 23.984C206.637 23.6427 206.301 23.3867 205.896 23.216C205.501 23.0347 205.096 22.944 204.68 22.944C204.253 22.944 203.826 23.0347 203.4 23.216C202.973 23.3867 202.616 23.6587 202.328 24.032C202.04 24.3947 201.896 24.8533 201.896 25.408V36H197.224Z" fill="white"/>
</svg>
